<svg xmlns="http://www.w3.org/2000/svg" xmlns:xlink="http://www.w3.org/1999/xlink" width="48" height="48" viewBox="0 0 48 48"><linearGradient id="a" x1="17.129%" x2="86.62%" y1="24.013%" y2="77.409%"><stop offset="0" stop-color="#ffceeb"/><stop offset="1" stop-color="#fff"/></linearGradient><g fill="none"><path fill="url(#a)" d="m19 8h14c2.209139 0 4 1.790861 4 4v15c0 2.209139-1.790861 4-4 4h-25c-2.209139 0-4-1.790861-4-4v-19c0-2.209139 1.790861-4 4-4h7c2.209139 0 4 1.790861 4 4z"/><path fill="#ff4a9e" d="m26 21h14c2.209139 0 4 1.790861 4 4v15c0 2.209139-1.790861 4-4 4h-25c-2.209139 0-4-1.790861-4-4v-19c0-2.209139 1.790861-4 4-4h7c2.209139 0 4 1.790861 4 4z"/></g></svg>